<svg width="12" height="12" viewBox="0 0 12 12" fill="none" xmlns="http://www.w3.org/2000/svg">
<g opacity="0.5">
<path fill-rule="evenodd" clip-rule="evenodd" d="M9.73521 10.5607C9.53994 10.756 9.22336 10.756 9.0281 10.5607L6.02296 7.55557L3.01783 10.5607C2.82257 10.756 2.50598 10.756 2.31072 10.5607L1.60361 9.8536C1.40835 9.65834 1.40835 9.34175 1.60361 9.14649L4.60875 6.14136L1.60348 3.13609C1.40822 2.94082 1.40822 2.62424 1.60348 2.42898L2.31058 1.72187C2.50585 1.52661 2.82243 1.52661 3.01769 1.72187L6.02296 4.72714L9.02824 1.72187C9.2235 1.52661 9.54008 1.52661 9.73534 1.72187L10.4424 2.42898C10.6377 2.62424 10.6377 2.94082 10.4424 3.13608L7.43718 6.14136L10.4423 9.14649C10.6376 9.34176 10.6376 9.65834 10.4423 9.8536L9.73521 10.5607Z" fill="white"/>
</g>
</svg>
