<svg width="16" height="16" viewBox="0 0 16 16" fill="none" xmlns="http://www.w3.org/2000/svg">
<g opacity="0.5">
<path d="M14.3335 8.88891V13.9445C14.3335 14.3433 14.0102 14.6667 13.6113 14.6667H2.05572C1.65685 14.6667 1.3335 14.3433 1.3335 13.9445V2.38891C1.3335 1.99004 1.65685 1.66669 2.05572 1.66669H7.11127" stroke="white" stroke-width="1.33333" stroke-linecap="round" stroke-linejoin="round"/>
<path fill-rule="evenodd" clip-rule="evenodd" d="M14.2758 1.81138C14.5421 2.06561 14.5519 2.4876 14.2977 2.75394L6.20715 11.2905C6.18088 11.3182 6.14588 11.336 6.10802 11.341L5.25948 11.4531C5.14944 11.4677 5.0562 11.3726 5.07288 11.2629L5.19422 10.4643C5.19933 10.4307 5.21462 10.3994 5.23802 10.3747L13.3332 1.8333C13.5874 1.56697 14.0094 1.55716 14.2758 1.81138Z" fill="white"/>
</g>
</svg>
