<svg width="73" height="72" viewBox="0 0 73 72" fill="none" xmlns="http://www.w3.org/2000/svg">
<path d="M36.5 0C16.6178 0 0.5 16.1178 0.5 36C0.5 55.8822 16.6178 72 36.5 72C56.3822 72 72.5 55.8822 72.5 36C72.5 16.1178 56.3822 0 36.5 0Z" fill="#3A5C39"/>
<path d="M57.6873 27.7893L33.5634 51.905C33.4303 52.0402 33.2716 52.1476 33.0965 52.2209C32.9215 52.2942 32.7336 52.332 32.5438 52.332C32.3541 52.332 32.1662 52.2942 31.9912 52.2209C31.8161 52.1476 31.6574 52.0402 31.5243 51.905L17.2095 37.5984C16.9403 37.3273 16.7893 36.9608 16.7893 36.5788C16.7893 36.1968 16.9403 35.8303 17.2095 35.5593L21.707 31.0617C21.8414 30.9272 22.001 30.8205 22.1766 30.7477C22.3523 30.6749 22.5405 30.6375 22.7307 30.6375C22.9208 30.6375 23.1091 30.6749 23.2847 30.7477C23.4604 30.8205 23.6199 30.9272 23.7543 31.0617L32.5438 39.8677L51.1424 21.2691C51.2768 21.1346 51.4364 21.0279 51.6121 20.9551C51.7877 20.8823 51.976 20.8448 52.1661 20.8448C52.3562 20.8448 52.5445 20.8823 52.7202 20.9551C52.8958 21.0279 53.0554 21.1346 53.1898 21.2691L57.6873 25.7584C57.952 26.0302 58.1001 26.3945 58.1001 26.7739C58.1001 27.1532 57.952 27.5176 57.6873 27.7893Z" fill="#A4FFA2"/>
</svg>
