<svg width="18" height="18" viewBox="0 0 18 18" fill="none" xmlns="http://www.w3.org/2000/svg">
<path d="M15.7351 9.44759C15.6267 11.0795 14.9294 12.6165 13.773 13.773L12.75 9.44759H15.7351Z" fill="white"/>
<path d="M15.7351 9.44759C15.6267 11.0795 14.9294 12.6165 13.773 13.773L12.75 9.44759H15.7351ZM15.7351 9.44759C15.8436 7.8157 15.3559 6.19994 14.3626 4.9006C13.3693 3.60127 11.9381 2.70676 10.3349 2.38332C8.73172 2.05987 7.06562 2.3295 5.64628 3.14209C4.22694 3.95468 3.1509 5.25496 2.61815 6.80125C2.0854 8.34754 2.13219 10.0347 2.74982 11.5491C3.36744 13.0634 4.51389 14.3021 5.97608 15.0348C7.20547 15.6508 8.58775 15.8739 9.9375 15.6846" stroke="white" stroke-width="1.5" stroke-linecap="round" stroke-linejoin="round"/>
<path d="M13.29 9.80365L14.2271 12.753L15.5481 9.80365H13.29Z" fill="white"/>
</svg>
