<svg width="144" height="144" viewBox="0 0 144 144" fill="none" xmlns="http://www.w3.org/2000/svg">
<rect x="0.162162" y="0.162162" width="143.676" height="143.676" fill="#333333" stroke="#333333" stroke-width="0.324324"/>
<path fill-rule="evenodd" clip-rule="evenodd" d="M105.005 70.8389C105.03 70.8386 105.055 70.8384 105.079 70.8384C105.079 54.13 85.4917 32.3758 71.8667 21.8945C70.0322 30.9499 64.6738 47.7214 58.6237 47.7214C55.433 47.7214 56.5394 43.9005 57.9103 41.1705C57.1791 41.7142 56.4257 42.2577 55.6603 42.8098C48.1613 48.2192 39.5046 54.4637 39.2016 69.9929C39.1105 70.7259 39.1006 71.476 39.178 72.231L42.0122 99.8643C42.3175 102.841 43.9482 105.521 46.4511 107.16L66.6272 120.374C69.9322 122.538 74.2058 122.538 77.5108 120.374L97.6868 107.16C100.19 105.521 101.821 102.841 102.126 99.8643L104.96 72.231C105.008 71.7641 105.022 71.2991 105.005 70.8389Z" fill="#282828"/>
</svg>
