<svg width="16" height="16" viewBox="0 0 16 16" fill="none" xmlns="http://www.w3.org/2000/svg">
<path fill-rule="evenodd" clip-rule="evenodd" d="M8.00001 15C11.866 15 15 11.866 15 8.00001C15 4.13401 11.866 1 8.00001 1C4.13401 1 1 4.13401 1 8.00001C1 11.866 4.13401 15 8.00001 15ZM4.4752 9.1247C4.30954 8.95904 4.30954 8.69045 4.4752 8.52479L5.07511 7.92487C5.24078 7.75921 5.50937 7.75921 5.67503 7.92487L7.1747 9.42454L11.0741 5.52513C11.2398 5.35947 11.5084 5.35947 11.674 5.52513L12.2739 6.12504C12.4396 6.2907 12.4396 6.55929 12.2739 6.72496L8.08302 10.9159L8.07469 10.9244L7.47477 11.5244C7.33531 11.6638 7.12289 11.6859 6.96036 11.5905C6.92977 11.5726 6.90095 11.5505 6.87471 11.5243L6.2748 10.9244L6.2705 10.92L4.4752 9.1247Z" fill="#282828"/>
</svg>
