<svg width="625" height="528" viewBox="0 0 625 528" fill="none" xmlns="http://www.w3.org/2000/svg">
<path opacity="0.4" d="M877.257 1083.75C873.084 1125.2 850.304 1162.5 815.457 1185.33L534.561 1369.29C488.548 1399.42 429.051 1399.42 383.037 1369.29L102.142 1185.33C67.2948 1162.5 44.4432 1125.2 40.3419 1083.75C10.1717 778.817 0.159668 704.43 0.159668 682.114C0.159668 457.267 123.138 368.557 229.416 291.893C239.887 284.34 250.509 276.934 260.775 269.104C254.915 280.64 215.731 360.274 270.673 360.274C354.904 360.274 429.505 126.79 455.045 0.719238C644.735 146.642 917.44 449.495 917.44 682.114C917.44 704.401 907.972 778.661 877.257 1083.75Z" fill="url(#paint0_linear_5096_151900)"/>
<defs>
<linearGradient id="paint0_linear_5096_151900" x1="248" y1="117.5" x2="695.5" y2="660.5" gradientUnits="userSpaceOnUse">
<stop stop-color="#16B8F3" stop-opacity="0.38"/>
<stop offset="1" stop-color="#139ED0" stop-opacity="0"/>
</linearGradient>
</defs>
</svg>
