<svg width="21" height="20" viewBox="0 0 21 20" fill="none" xmlns="http://www.w3.org/2000/svg">
<g filter="url(#filter0_ii_5113_152344)">
<path d="M15.1765 7.86065C17.044 10.6316 18.0392 13.6067 17.4706 15.0588C17.355 15.3541 15.6777 14.6066 15.4359 14.7695C14.0053 15.7337 12.2433 14.6868 9.9959 11.3522C7.74849 8.01758 8.54621 5.28362 8.67932 4.0163C8.69238 3.89195 8.66091 3.2886 8.76396 3.25023C10.2797 2.68587 13.0722 4.73831 15.1765 7.86065Z" fill="url(#paint0_radial_5113_152344)"/>
</g>
<g filter="url(#filter1_i_5113_152344)">
<path d="M4.42295 6.81743C4.73479 7.72801 3.94919 7.96476 4.20706 8.5536L5.08261 8.32292C4.82475 7.73408 5.5084 7.50947 5.23254 6.56854L4.42295 6.81743Z" fill="url(#paint1_linear_5113_152344)"/>
</g>
<g filter="url(#filter2_i_5113_152344)">
<path d="M18.4551 13.0154C18.7669 13.9259 17.9813 14.1627 18.2392 14.7515L19.1147 14.5209C18.8568 13.932 19.5405 13.7074 19.2646 12.7665L18.4551 13.0154Z" fill="url(#paint2_linear_5113_152344)"/>
</g>
<path d="M19.0417 16.2672C17.8074 16.9384 17.4927 15.5545 16.6595 15.8633L16.9187 17.0572C17.7457 16.7543 18.0975 18.0491 19.3317 17.378L19.0417 16.2672Z" fill="url(#paint3_linear_5113_152344)"/>
<g filter="url(#filter3_i_5113_152344)">
<path d="M15.3264 6.57371C15.3708 6.54284 15.3962 6.49143 15.3927 6.43745C15.3735 6.14176 15.3477 5.83605 15.3153 5.52032C15.3038 5.40805 15.1779 5.34828 15.0847 5.41192C13.9109 6.2135 13.3545 7.11116 13.2181 7.35388C13.1956 7.39399 13.1952 7.44148 13.2144 7.48331L13.5083 8.12485C13.5611 8.24018 13.7255 8.24551 13.7928 8.13797C14.2484 7.40991 14.8863 6.8797 15.3264 6.57371Z" fill="url(#paint4_linear_5113_152344)"/>
</g>
<path d="M10.3342 2.96022C10.6503 2.71815 10.9749 2.45579 11.3079 2.17316C9.65506 1.44838 8.35702 1.62245 8.35702 1.62245L7.78899 2.55206C8.81153 2.43955 9.78668 2.73823 10.3342 2.96022Z" fill="url(#paint5_linear_5113_152344)"/>
<g filter="url(#filter4_i_5113_152344)">
<path d="M19.6009 2.45039C19.7663 5.6427 16.6595 6.05855 16.6595 6.05855L17.0946 7.07985C17.0946 7.07985 21.4392 6.1564 20.4955 2.19354C20.1646 2.27304 19.8644 2.35866 19.6009 2.45039Z" fill="url(#paint6_linear_5113_152344)"/>
</g>
<g filter="url(#filter5_i_5113_152344)">
<path d="M11.993 1.02611C11.8832 1.07806 11.8614 1.23787 11.9502 1.32067C14.2 3.41647 10.1739 6.74254 9.12278 7.64281C9.07944 7.67994 9.06269 7.73655 9.07603 7.79205L9.20368 8.32332C9.22965 8.43142 9.3561 8.47901 9.44392 8.41086C10.796 7.36158 15.8842 3.33914 12.7894 0.768823C12.7532 0.738741 12.7026 0.726023 12.6575 0.739515C12.4407 0.804358 12.2011 0.927643 11.993 1.02611Z" fill="url(#paint7_linear_5113_152344)"/>
</g>
<g filter="url(#filter6_i_5113_152344)">
<path d="M20.4914 10.5166C17.002 9.30532 13.6859 12.8465 13.6536 12.6909L12.7182 12.0932C12.4757 12.5401 16.2437 8.15109 20.4914 9.70097C20.6102 9.94442 20.6254 10.2719 20.4914 10.5166Z" fill="url(#paint8_linear_5113_152344)"/>
</g>
<mask id="mask0_5113_152344" style="mask-type:alpha" maskUnits="userSpaceOnUse" x="0" y="2" width="18" height="17">
<path d="M0.84833 18.4773L8.93422 2.74516L17.9888 15.0772L0.84833 18.4773Z" fill="url(#paint9_linear_5113_152344)"/>
</mask>
<g mask="url(#mask0_5113_152344)">
<g filter="url(#filter7_iii_5113_152344)">
<path d="M4.29498 17.7936C2.87515 18.0753 2.16524 18.2161 1.82755 17.8513C1.78692 17.8074 1.75081 17.7595 1.7198 17.7083C1.46205 17.2832 1.7929 16.6395 2.45459 15.3521L8.32928 3.92215C8.56526 3.46304 8.68324 3.23348 8.82745 3.23754C8.84466 3.23802 8.8611 3.24033 8.87778 3.2446C9.01754 3.28035 9.06842 3.53638 9.17019 4.04844C10.2436 9.44961 12.0905 12.0668 16.784 14.4881C17.2539 14.7305 17.4889 14.8517 17.4847 14.9958C17.4842 15.0131 17.4819 15.0294 17.4776 15.0461C17.4417 15.1858 17.1861 15.2365 16.675 15.3379L4.29498 17.7936Z" fill="url(#paint10_linear_5113_152344)"/>
</g>
<g filter="url(#filter8_f_5113_152344)">
<ellipse cx="1.68393" cy="2.9769" rx="1.68393" ry="2.9769" transform="matrix(0.369496 -0.929232 0.890181 0.455607 5.99487 12.0211)" fill="white" fill-opacity="0.81"/>
</g>
<path d="M8.76467 12.3935C7.06473 10.1389 6.18287 7.43768 5.63604 3.6597L6.85176 2.73973C7.36806 6.70728 8.2883 9.49335 10.0243 11.7458C11.7612 13.9995 14.3087 15.7108 18.0615 17.5412L16.8425 18.4637C12.9917 16.4665 10.4657 14.6497 8.76467 12.3935Z" fill="url(#paint11_linear_5113_152344)" stroke="#FFE600" stroke-width="0.152697"/>
<path d="M5.69387 14.5637C3.99393 12.309 3.11207 9.60785 2.56523 5.82986L3.78096 4.90989C4.29726 8.87744 5.2175 11.6635 6.95348 13.9159C8.69044 16.1696 11.2379 17.8809 14.9907 19.7114L13.7717 20.6338C9.92093 18.6366 7.39495 16.8199 5.69387 14.5637Z" fill="url(#paint12_linear_5113_152344)" stroke="#FFE600" stroke-width="0.152697"/>
<path d="M2.68277 17.157C0.982825 14.9023 0.100962 12.2012 -0.445874 8.42318L0.769848 7.50322C1.28615 11.4708 2.20639 14.2568 3.94237 16.5093C5.67934 18.763 8.2268 20.4743 11.9796 22.3047L10.7606 23.2272C6.90982 21.23 4.38384 19.4132 2.68277 17.157Z" fill="url(#paint13_linear_5113_152344)" stroke="#FFE600" stroke-width="0.152697"/>
</g>
<defs>
<filter id="filter0_ii_5113_152344" x="7.42673" y="2.33312" width="10.2034" height="13.1616" filterUnits="userSpaceOnUse" color-interpolation-filters="sRGB">
<feFlood flood-opacity="0" result="BackgroundImageFix"/>
<feBlend mode="normal" in="SourceGraphic" in2="BackgroundImageFix" result="shape"/>
<feColorMatrix in="SourceAlpha" type="matrix" values="0 0 0 0 0 0 0 0 0 0 0 0 0 0 0 0 0 0 127 0" result="hardAlpha"/>
<feOffset dx="-1.00687" dy="-0.823802"/>
<feGaussianBlur stdDeviation="0.732268"/>
<feComposite in2="hardAlpha" operator="arithmetic" k2="-1" k3="1"/>
<feColorMatrix type="matrix" values="0 0 0 0 0.991667 0 0 0 0 0.476 0 0 0 0 0 0 0 0 0.25 0"/>
<feBlend mode="normal" in2="shape" result="effect1_innerShadow_5113_152344"/>
<feColorMatrix in="SourceAlpha" type="matrix" values="0 0 0 0 0 0 0 0 0 0 0 0 0 0 0 0 0 0 127 0" result="hardAlpha"/>
<feOffset dy="0.366134"/>
<feGaussianBlur stdDeviation="0.640735"/>
<feComposite in2="hardAlpha" operator="arithmetic" k2="-1" k3="1"/>
<feColorMatrix type="matrix" values="0 0 0 0 0.984917 0 0 0 0 1 0 0 0 0 0.245833 0 0 0 0.71 0"/>
<feBlend mode="normal" in2="effect1_innerShadow_5113_152344" result="effect2_innerShadow_5113_152344"/>
</filter>
<filter id="filter1_i_5113_152344" x="4.15417" y="6.56854" width="1.30787" height="2.14765" filterUnits="userSpaceOnUse" color-interpolation-filters="sRGB">
<feFlood flood-opacity="0" result="BackgroundImageFix"/>
<feBlend mode="normal" in="SourceGraphic" in2="BackgroundImageFix" result="shape"/>
<feColorMatrix in="SourceAlpha" type="matrix" values="0 0 0 0 0 0 0 0 0 0 0 0 0 0 0 0 0 0 127 0" result="hardAlpha"/>
<feOffset dx="0.162602" dy="0.162602"/>
<feGaussianBlur stdDeviation="0.0813008"/>
<feComposite in2="hardAlpha" operator="arithmetic" k2="-1" k3="1"/>
<feColorMatrix type="matrix" values="0 0 0 0 1 0 0 0 0 0.9 0 0 0 0 0 0 0 0 1 0"/>
<feBlend mode="normal" in2="shape" result="effect1_innerShadow_5113_152344"/>
</filter>
<filter id="filter2_i_5113_152344" x="18.1863" y="12.7665" width="1.30787" height="2.14765" filterUnits="userSpaceOnUse" color-interpolation-filters="sRGB">
<feFlood flood-opacity="0" result="BackgroundImageFix"/>
<feBlend mode="normal" in="SourceGraphic" in2="BackgroundImageFix" result="shape"/>
<feColorMatrix in="SourceAlpha" type="matrix" values="0 0 0 0 0 0 0 0 0 0 0 0 0 0 0 0 0 0 127 0" result="hardAlpha"/>
<feOffset dx="0.162602" dy="0.162602"/>
<feGaussianBlur stdDeviation="0.0813008"/>
<feComposite in2="hardAlpha" operator="arithmetic" k2="-1" k3="1"/>
<feColorMatrix type="matrix" values="0 0 0 0 1 0 0 0 0 0.9 0 0 0 0 0 0 0 0 1 0"/>
<feBlend mode="normal" in2="shape" result="effect1_innerShadow_5113_152344"/>
</filter>
<filter id="filter3_i_5113_152344" x="13.2006" y="5.38593" width="2.1925" height="3.13462" filterUnits="userSpaceOnUse" color-interpolation-filters="sRGB">
<feFlood flood-opacity="0" result="BackgroundImageFix"/>
<feBlend mode="normal" in="SourceGraphic" in2="BackgroundImageFix" result="shape"/>
<feColorMatrix in="SourceAlpha" type="matrix" values="0 0 0 0 0 0 0 0 0 0 0 0 0 0 0 0 0 0 127 0" result="hardAlpha"/>
<feOffset dy="0.305394"/>
<feGaussianBlur stdDeviation="0.243902"/>
<feComposite in2="hardAlpha" operator="arithmetic" k2="-1" k3="1"/>
<feColorMatrix type="matrix" values="0 0 0 0 0.02 0 0 0 0 0 0 0 0 0 1 0 0 0 0.94 0"/>
<feBlend mode="normal" in2="shape" result="effect1_innerShadow_5113_152344"/>
</filter>
<filter id="filter4_i_5113_152344" x="16.6595" y="2.19354" width="4.13269" height="5.04889" filterUnits="userSpaceOnUse" color-interpolation-filters="sRGB">
<feFlood flood-opacity="0" result="BackgroundImageFix"/>
<feBlend mode="normal" in="SourceGraphic" in2="BackgroundImageFix" result="shape"/>
<feColorMatrix in="SourceAlpha" type="matrix" values="0 0 0 0 0 0 0 0 0 0 0 0 0 0 0 0 0 0 127 0" result="hardAlpha"/>
<feOffset dx="0.162602" dy="0.162602"/>
<feGaussianBlur stdDeviation="0.203252"/>
<feComposite in2="hardAlpha" operator="arithmetic" k2="-1" k3="1"/>
<feColorMatrix type="matrix" values="0 0 0 0 0.970833 0 0 0 0 0.202257 0 0 0 0 0.801746 0 0 0 1 0"/>
<feBlend mode="normal" in2="shape" result="effect1_innerShadow_5113_152344"/>
</filter>
<filter id="filter5_i_5113_152344" x="9.07153" y="0.734131" width="4.69995" height="8.01383" filterUnits="userSpaceOnUse" color-interpolation-filters="sRGB">
<feFlood flood-opacity="0" result="BackgroundImageFix"/>
<feBlend mode="normal" in="SourceGraphic" in2="BackgroundImageFix" result="shape"/>
<feColorMatrix in="SourceAlpha" type="matrix" values="0 0 0 0 0 0 0 0 0 0 0 0 0 0 0 0 0 0 127 0" result="hardAlpha"/>
<feOffset dy="0.305394"/>
<feGaussianBlur stdDeviation="0.203252"/>
<feComposite in2="hardAlpha" operator="arithmetic" k2="-1" k3="1"/>
<feColorMatrix type="matrix" values="0 0 0 0 1 0 0 0 0 0.72 0 0 0 0 0 0 0 0 1 0"/>
<feBlend mode="normal" in2="shape" result="effect1_innerShadow_5113_152344"/>
</filter>
<filter id="filter6_i_5113_152344" x="12.707" y="9.36804" width="7.87927" height="3.63327" filterUnits="userSpaceOnUse" color-interpolation-filters="sRGB">
<feFlood flood-opacity="0" result="BackgroundImageFix"/>
<feBlend mode="normal" in="SourceGraphic" in2="BackgroundImageFix" result="shape"/>
<feColorMatrix in="SourceAlpha" type="matrix" values="0 0 0 0 0 0 0 0 0 0 0 0 0 0 0 0 0 0 127 0" result="hardAlpha"/>
<feOffset dy="0.305394"/>
<feGaussianBlur stdDeviation="0.152697"/>
<feComposite in2="hardAlpha" operator="arithmetic" k2="-1" k3="1"/>
<feColorMatrix type="matrix" values="0 0 0 0 0 0 0 0 0 0.76 0 0 0 0 1 0 0 0 1 0"/>
<feBlend mode="normal" in2="shape" result="effect1_innerShadow_5113_152344"/>
</filter>
<filter id="filter7_iii_5113_152344" x="0.625333" y="2.41369" width="16.8594" height="16.0229" filterUnits="userSpaceOnUse" color-interpolation-filters="sRGB">
<feFlood flood-opacity="0" result="BackgroundImageFix"/>
<feBlend mode="normal" in="SourceGraphic" in2="BackgroundImageFix" result="shape"/>
<feColorMatrix in="SourceAlpha" type="matrix" values="0 0 0 0 0 0 0 0 0 0 0 0 0 0 0 0 0 0 127 0" result="hardAlpha"/>
<feOffset dx="-1.00687" dy="-0.823802"/>
<feGaussianBlur stdDeviation="0.732268"/>
<feComposite in2="hardAlpha" operator="arithmetic" k2="-1" k3="1"/>
<feColorMatrix type="matrix" values="0 0 0 0 0.991667 0 0 0 0 0.476 0 0 0 0 0 0 0 0 0.25 0"/>
<feBlend mode="normal" in2="shape" result="effect1_innerShadow_5113_152344"/>
<feColorMatrix in="SourceAlpha" type="matrix" values="0 0 0 0 0 0 0 0 0 0 0 0 0 0 0 0 0 0 127 0" result="hardAlpha"/>
<feOffset dy="0.366134"/>
<feGaussianBlur stdDeviation="0.640735"/>
<feComposite in2="hardAlpha" operator="arithmetic" k2="-1" k3="1"/>
<feColorMatrix type="matrix" values="0 0 0 0 0.984917 0 0 0 0 1 0 0 0 0 0.245833 0 0 0 0.71 0"/>
<feBlend mode="normal" in2="effect1_innerShadow_5113_152344" result="effect2_innerShadow_5113_152344"/>
<feColorMatrix in="SourceAlpha" type="matrix" values="0 0 0 0 0 0 0 0 0 0 0 0 0 0 0 0 0 0 127 0" result="hardAlpha"/>
<feOffset dy="0.243902"/>
<feGaussianBlur stdDeviation="0.0813008"/>
<feComposite in2="hardAlpha" operator="arithmetic" k2="-1" k3="1"/>
<feColorMatrix type="matrix" values="0 0 0 0 0.992833 0 0 0 0 1 0 0 0 0 0.641667 0 0 0 1 0"/>
<feBlend mode="normal" in2="effect2_innerShadow_5113_152344" result="effect3_innerShadow_5113_152344"/>
</filter>
<filter id="filter8_f_5113_152344" x="2.82821" y="6.0256" width="12.8778" height="11.574" filterUnits="userSpaceOnUse" color-interpolation-filters="sRGB">
<feFlood flood-opacity="0" result="BackgroundImageFix"/>
<feBlend mode="normal" in="SourceGraphic" in2="BackgroundImageFix" result="shape"/>
<feGaussianBlur stdDeviation="1.85811" result="effect1_foregroundBlur_5113_152344"/>
</filter>
<radialGradient id="paint0_radial_5113_152344" cx="0" cy="0" r="1" gradientUnits="userSpaceOnUse" gradientTransform="translate(11.888 10.5908) rotate(-36.8897) scale(4.79277 13.5652)">
<stop stop-color="#FF7917"/>
<stop offset="1" stop-color="#FFE600"/>
</radialGradient>
<linearGradient id="paint1_linear_5113_152344" x1="4.72679" y1="8.5536" x2="4.70526" y2="6.56878" gradientUnits="userSpaceOnUse">
<stop stop-color="#FFCB14"/>
<stop offset="1" stop-color="#FF810D"/>
</linearGradient>
<linearGradient id="paint2_linear_5113_152344" x1="18.7589" y1="14.7515" x2="18.7374" y2="12.7667" gradientUnits="userSpaceOnUse">
<stop stop-color="#FF7714"/>
<stop offset="1" stop-color="#ECFF0D"/>
</linearGradient>
<linearGradient id="paint3_linear_5113_152344" x1="20.8393" y1="17.2547" x2="16.7266" y2="16.4515" gradientUnits="userSpaceOnUse">
<stop stop-color="#80DAFE"/>
<stop offset="1" stop-color="#008EE6"/>
</linearGradient>
<linearGradient id="paint4_linear_5113_152344" x1="13.628" y1="8.11367" x2="14.835" y2="5.65698" gradientUnits="userSpaceOnUse">
<stop stop-color="#EF38FF"/>
<stop offset="1" stop-color="#3971FF"/>
</linearGradient>
<linearGradient id="paint5_linear_5113_152344" x1="10.7833" y1="2.58001" x2="8.88603" y2="1.70075" gradientUnits="userSpaceOnUse">
<stop stop-color="#ADE8FF"/>
<stop offset="1" stop-color="#2DAFFF"/>
</linearGradient>
<linearGradient id="paint6_linear_5113_152344" x1="19.7333" y1="0.502967" x2="17.4166" y2="7.08299" gradientUnits="userSpaceOnUse">
<stop offset="0.135263" stop-color="#FFB6AE"/>
<stop offset="0.630921" stop-color="#C23EFF"/>
<stop offset="1" stop-color="#5B64FF"/>
</linearGradient>
<linearGradient id="paint7_linear_5113_152344" x1="10.0001" y1="7.81864" x2="13.3045" y2="2.0932" gradientUnits="userSpaceOnUse">
<stop stop-color="#FF3838"/>
<stop offset="1" stop-color="#FF39B0"/>
</linearGradient>
<linearGradient id="paint8_linear_5113_152344" x1="19.9974" y1="9.68401" x2="13.614" y2="12.5746" gradientUnits="userSpaceOnUse">
<stop stop-color="#B7EAFF"/>
<stop offset="1" stop-color="#1C40FF"/>
</linearGradient>
<linearGradient id="paint9_linear_5113_152344" x1="2.78086" y1="16.7525" x2="17.0207" y2="6.2972" gradientUnits="userSpaceOnUse">
<stop stop-color="#2991F1"/>
<stop offset="1" stop-color="#31FC82"/>
</linearGradient>
<linearGradient id="paint10_linear_5113_152344" x1="2.78087" y1="16.7525" x2="13.9403" y2="9.13771" gradientUnits="userSpaceOnUse">
<stop stop-color="#FFC700"/>
<stop offset="1" stop-color="#FFF84D"/>
</linearGradient>
<linearGradient id="paint11_linear_5113_152344" x1="7.1689" y1="6.01277" x2="14.4648" y2="16.4082" gradientUnits="userSpaceOnUse">
<stop stop-color="#FC70FF"/>
<stop offset="1" stop-color="#9A76FF"/>
</linearGradient>
<linearGradient id="paint12_linear_5113_152344" x1="4.64141" y1="11.2095" x2="8.69469" y2="16.8841" gradientUnits="userSpaceOnUse">
<stop stop-color="#FC70FF"/>
<stop offset="1" stop-color="#9A76FF"/>
</linearGradient>
<linearGradient id="paint13_linear_5113_152344" x1="2.78139" y1="15.8841" x2="4.11659" y2="17.6485" gradientUnits="userSpaceOnUse">
<stop stop-color="#FC70FF"/>
<stop offset="1" stop-color="#9A76FF"/>
</linearGradient>
</defs>
</svg>
