<svg width="20" height="20" viewBox="0 0 20 20" fill="none" xmlns="http://www.w3.org/2000/svg">
<g filter="url(#filter0_iiii_5113_160178)">
<path fill-rule="evenodd" clip-rule="evenodd" d="M10 7.77471L6.87201 4.64672C6.4815 4.25621 5.84836 4.25621 5.45785 4.64672L4.69679 5.40778C4.30628 5.79829 4.30628 6.43143 4.69679 6.82194L7.82478 9.94994L4.59673 13.178C4.20622 13.5685 4.20622 14.2016 4.59673 14.5922L5.35779 15.3532C5.7483 15.7437 6.38144 15.7437 6.77195 15.3532L10 12.1252L13.2281 15.3532C13.6186 15.7437 14.2517 15.7437 14.6422 15.3532L15.4033 14.5922C15.7938 14.2016 15.7938 13.5685 15.4033 13.178L12.1752 9.94994L15.3032 6.82194C15.6937 6.43143 15.6937 5.79829 15.3032 5.40778L14.5421 4.64672C14.1516 4.25621 13.5185 4.25621 13.128 4.64672L10 7.77471Z" fill="url(#paint0_radial_5113_160178)"/>
</g>
<defs>
<filter id="filter0_iiii_5113_160178" x="4.22918" y="3.54616" width="11.6774" height="12.9269" filterUnits="userSpaceOnUse" color-interpolation-filters="sRGB">
<feFlood flood-opacity="0" result="BackgroundImageFix"/>
<feBlend mode="normal" in="SourceGraphic" in2="BackgroundImageFix" result="shape"/>
<feColorMatrix in="SourceAlpha" type="matrix" values="0 0 0 0 0 0 0 0 0 0 0 0 0 0 0 0 0 0 127 0" result="hardAlpha"/>
<feOffset dx="0.210378"/>
<feGaussianBlur stdDeviation="0.173053"/>
<feComposite in2="hardAlpha" operator="arithmetic" k2="-1" k3="1"/>
<feColorMatrix type="matrix" values="0 0 0 0 1 0 0 0 0 0.942917 0 0 0 0 0.429167 0 0 0 1 0"/>
<feBlend mode="normal" in2="shape" result="effect1_innerShadow_5113_160178"/>
<feColorMatrix in="SourceAlpha" type="matrix" values="0 0 0 0 0 0 0 0 0 0 0 0 0 0 0 0 0 0 127 0" result="hardAlpha"/>
<feOffset dy="-0.807662"/>
<feGaussianBlur stdDeviation="0.715447"/>
<feComposite in2="hardAlpha" operator="arithmetic" k2="-1" k3="1"/>
<feColorMatrix type="matrix" values="0 0 0 0 1 0 0 0 0 0 0 0 0 0 0 0 0 0 1 0"/>
<feBlend mode="normal" in2="effect1_innerShadow_5113_160178" result="effect2_innerShadow_5113_160178"/>
<feColorMatrix in="SourceAlpha" type="matrix" values="0 0 0 0 0 0 0 0 0 0 0 0 0 0 0 0 0 0 127 0" result="hardAlpha"/>
<feOffset dx="-0.0746504" dy="0.826892"/>
<feGaussianBlur stdDeviation="0.817277"/>
<feComposite in2="hardAlpha" operator="arithmetic" k2="-1" k3="1"/>
<feColorMatrix type="matrix" values="0 0 0 0 1 0 0 0 0 1 0 0 0 0 1 0 0 0 1 0"/>
<feBlend mode="normal" in2="effect2_innerShadow_5113_160178" result="effect3_innerShadow_5113_160178"/>
<feColorMatrix in="SourceAlpha" type="matrix" values="0 0 0 0 0 0 0 0 0 0 0 0 0 0 0 0 0 0 127 0" result="hardAlpha"/>
<feOffset/>
<feGaussianBlur stdDeviation="0.0422705"/>
<feComposite in2="hardAlpha" operator="arithmetic" k2="-1" k3="1"/>
<feColorMatrix type="matrix" values="0 0 0 0 1 0 0 0 0 0.619408 0 0 0 0 0.545833 0 0 0 1 0"/>
<feBlend mode="normal" in2="effect3_innerShadow_5113_160178" result="effect4_innerShadow_5113_160178"/>
</filter>
<radialGradient id="paint0_radial_5113_160178" cx="0" cy="0" r="1" gradientUnits="userSpaceOnUse" gradientTransform="translate(13.5949 5.00769) rotate(125.413) scale(12.4152 57.4458)">
<stop stop-color="#FFA901"/>
<stop offset="1" stop-color="#FF0000"/>
</radialGradient>
</defs>
</svg>
